<svg width="157" height="58" viewBox="0 0 157 58" fill="none" xmlns="http://www.w3.org/2000/svg">
<circle cx="25.0407" cy="29.0407" r="25.0407" fill="#18004C"/>
<path d="M17.836 14.852C20.404 14.852 22.612 15.356 24.46 16.364C26.308 17.348 27.724 18.704 28.708 20.432C29.692 22.136 30.184 24.08 30.184 26.264C30.184 27.752 29.98 29.204 29.572 30.62C29.164 32.036 28.468 33.308 27.484 34.436C26.524 35.564 25.216 36.464 23.56 37.136C21.904 37.784 19.84 38.108 17.368 38.108H8.584C8.488 38.012 8.44 37.844 8.44 37.604C8.464 37.364 8.512 37.196 8.584 37.1C8.728 37.1 8.992 37.088 9.376 37.064C9.76 37.016 10.12 36.944 10.456 36.848C10.816 36.752 11.008 36.644 11.032 36.524C11.128 36.236 11.176 35.864 11.176 35.408C11.2 34.952 11.212 34.46 11.212 33.932V18.92C11.212 18.392 11.2 17.9 11.176 17.444C11.176 16.964 11.128 16.58 11.032 16.292C11.008 16.148 10.816 16.04 10.456 15.968C10.12 15.896 9.76 15.848 9.376 15.824C8.992 15.776 8.728 15.752 8.584 15.752C8.512 15.656 8.464 15.488 8.44 15.248C8.44 15.008 8.488 14.84 8.584 14.744C9.304 14.768 10.012 14.804 10.708 14.852C11.404 14.876 12.088 14.888 12.76 14.888C13.456 14.888 14.284 14.888 15.244 14.888C16.204 14.864 17.068 14.852 17.836 14.852ZM14.308 18.992V33.968C14.308 34.136 14.308 34.412 14.308 34.796C14.308 35.156 14.32 35.516 14.344 35.876C14.392 36.212 14.44 36.416 14.488 36.488C14.632 36.68 14.98 36.812 15.532 36.884C16.108 36.956 16.72 36.992 17.368 36.992C19.048 36.992 20.584 36.632 21.976 35.912C23.392 35.192 24.532 34.1 25.396 32.636C26.26 31.148 26.692 29.264 26.692 26.984C26.692 24.992 26.416 23.3 25.864 21.908C25.336 20.516 24.604 19.388 23.668 18.524C22.756 17.636 21.712 17 20.536 16.616C19.384 16.208 18.172 16.004 16.9 16.004C16.756 16.004 16.492 16.016 16.108 16.04C15.724 16.04 15.364 16.064 15.028 16.112C14.692 16.16 14.5 16.244 14.452 16.364C14.38 16.604 14.332 16.928 14.308 17.336C14.308 17.72 14.308 18.128 14.308 18.56C14.308 18.632 14.308 18.704 14.308 18.776C14.308 18.848 14.308 18.92 14.308 18.992ZM42.6169 22.628C43.0729 22.628 43.5049 22.736 43.9129 22.952C44.3209 23.144 44.6089 23.384 44.7769 23.672C44.8249 23.768 44.8609 23.9 44.8849 24.068C44.9089 24.236 44.9209 24.416 44.9209 24.608C44.9209 25.256 44.7649 25.724 44.4529 26.012C44.1649 26.3 43.9249 26.444 43.7329 26.444C43.4929 26.444 43.2649 26.36 43.0489 26.192C42.8329 26.024 42.6289 25.88 42.4369 25.76C42.2689 25.64 42.0889 25.544 41.8969 25.472C41.7289 25.376 41.4769 25.328 41.1409 25.328C40.6369 25.328 40.1689 25.544 39.7369 25.976C39.3289 26.384 38.9929 26.84 38.7289 27.344C38.4649 27.848 38.3329 28.232 38.3329 28.496V33.932C38.3329 34.46 38.3329 34.952 38.3329 35.408C38.3569 35.864 38.4169 36.236 38.5129 36.524C38.5609 36.644 38.8009 36.752 39.2329 36.848C39.6649 36.944 40.1209 37.016 40.6009 37.064C41.0809 37.088 41.3929 37.1 41.5369 37.1C41.6089 37.196 41.6449 37.364 41.6449 37.604C41.6689 37.844 41.6329 38.012 41.5369 38.108C40.8169 38.06 40.0849 38.024 39.3409 38C38.5969 37.952 37.8769 37.928 37.1809 37.928C36.5089 37.928 35.8609 37.952 35.2369 38C34.6129 38.024 33.9409 38.06 33.2209 38.108C33.1249 38.012 33.0769 37.844 33.0769 37.604C33.1009 37.364 33.1489 37.196 33.2209 37.1C33.3649 37.1 33.6049 37.088 33.9409 37.064C34.3009 37.016 34.6369 36.944 34.9489 36.848C35.2609 36.752 35.4289 36.644 35.4529 36.524C35.5489 36.236 35.5969 35.864 35.5969 35.408C35.6209 34.952 35.6329 34.46 35.6329 33.932V27.38C35.6329 27.14 35.6209 26.828 35.5969 26.444C35.5969 26.06 35.5489 25.76 35.4529 25.544C35.3809 25.328 35.1769 25.184 34.8409 25.112C34.5049 25.016 34.1689 24.968 33.8329 24.968C33.4969 24.944 33.2809 24.932 33.1849 24.932C33.1609 24.884 33.1369 24.74 33.1129 24.5C33.0889 24.26 33.1129 24.092 33.1849 23.996C34.0969 23.876 34.9849 23.696 35.8489 23.456C36.7129 23.216 37.4929 22.904 38.1889 22.52C38.2849 22.52 38.3689 22.592 38.4409 22.736C38.5369 22.88 38.5849 23 38.5849 23.096C38.5849 23.168 38.5609 23.444 38.5129 23.924C38.4649 24.404 38.4169 24.896 38.3689 25.4C38.3449 25.88 38.3329 26.192 38.3329 26.336C38.3329 26.408 38.3449 26.444 38.3689 26.444C38.4169 26.444 38.4529 26.432 38.4769 26.408C38.7169 25.904 39.0529 25.364 39.4849 24.788C39.9409 24.188 40.4449 23.684 40.9969 23.276C41.5489 22.844 42.0889 22.628 42.6169 22.628Z" fill="white"/>
<path d="M53.464 19.068C52.84 19.068 52.312 18.852 51.88 18.42C51.448 17.988 51.232 17.46 51.232 16.836C51.232 16.212 51.448 15.684 51.88 15.252C52.312 14.82 52.84 14.604 53.464 14.604C54.064 14.604 54.568 14.82 54.976 15.252C55.408 15.684 55.624 16.212 55.624 16.836C55.624 17.46 55.408 17.988 54.976 18.42C54.568 18.852 54.064 19.068 53.464 19.068ZM55.048 22.272V42H51.772V22.272H55.048ZM67.9754 38.976L74.0954 22.272H77.5874L69.8474 42H66.0314L58.2914 22.272H61.8194L67.9754 38.976ZM98.8111 31.38C98.8111 32.004 98.7751 32.664 98.7031 33.36H82.9351C83.0551 35.304 83.7151 36.828 84.9151 37.932C86.1391 39.012 87.6151 39.552 89.3431 39.552C90.7591 39.552 91.9351 39.228 92.8711 38.58C93.8311 37.908 94.5031 37.02 94.8871 35.916H98.4151C97.8871 37.812 96.8311 39.36 95.2471 40.56C93.6631 41.736 91.6951 42.324 89.3431 42.324C87.4711 42.324 85.7911 41.904 84.3031 41.064C82.8391 40.224 81.6871 39.036 80.8471 37.5C80.0071 35.94 79.5871 34.14 79.5871 32.1C79.5871 30.06 79.9951 28.272 80.8111 26.736C81.6271 25.2 82.7671 24.024 84.2311 23.208C85.7191 22.368 87.4231 21.948 89.3431 21.948C91.2151 21.948 92.8711 22.356 94.3111 23.172C95.7511 23.988 96.8551 25.116 97.6231 26.556C98.4151 27.972 98.8111 29.58 98.8111 31.38ZM95.4271 30.696C95.4271 29.448 95.1511 28.38 94.5991 27.492C94.0471 26.58 93.2911 25.896 92.3311 25.44C91.3951 24.96 90.3511 24.72 89.1991 24.72C87.5431 24.72 86.1271 25.248 84.9511 26.304C83.7991 27.36 83.1391 28.824 82.9711 30.696H95.4271ZM128.587 17.088V42H125.311V23.424L117.031 42H114.727L106.411 23.388V42H103.135V17.088H106.663L115.879 37.68L125.095 17.088H128.587ZM152.143 31.38C152.143 32.004 152.107 32.664 152.035 33.36H136.267C136.387 35.304 137.047 36.828 138.247 37.932C139.471 39.012 140.947 39.552 142.675 39.552C144.091 39.552 145.267 39.228 146.203 38.58C147.163 37.908 147.835 37.02 148.219 35.916H151.747C151.219 37.812 150.163 39.36 148.579 40.56C146.995 41.736 145.027 42.324 142.675 42.324C140.803 42.324 139.123 41.904 137.635 41.064C136.171 40.224 135.019 39.036 134.179 37.5C133.339 35.94 132.919 34.14 132.919 32.1C132.919 30.06 133.327 28.272 134.143 26.736C134.959 25.2 136.099 24.024 137.563 23.208C139.051 22.368 140.755 21.948 142.675 21.948C144.547 21.948 146.203 22.356 147.643 23.172C149.083 23.988 150.187 25.116 150.955 26.556C151.747 27.972 152.143 29.58 152.143 31.38ZM148.759 30.696C148.759 29.448 148.483 28.38 147.931 27.492C147.379 26.58 146.623 25.896 145.663 25.44C144.727 24.96 143.683 24.72 142.531 24.72C140.875 24.72 139.459 25.248 138.283 26.304C137.131 27.36 136.471 28.824 136.303 30.696H148.759Z" fill="#18004C"/>
</svg>
